<?xml version="1.0" encoding="utf-8"?>
<!-- Generator: Adobe Illustrator 24.2.0, SVG Export Plug-In . SVG Version: 6.00 Build 0)  -->
<svg version="1.1" id="Laag_1" xmlns="http://www.w3.org/2000/svg" xmlns:xlink="http://www.w3.org/1999/xlink" x="0px" y="0px"
	 viewBox="0 0 729 675" style="enable-background:new 0 0 729 675;" xml:space="preserve">
<style type="text/css">
	.st0{fill:none;stroke:#dedede;stroke-width:0.25;stroke-miterlimit:10;}
</style>
<rect x="99.6" y="2.6" class="st0" width="33.9" height="17.5"/>
<rect x="187.1" y="2.6" class="st0" width="45.3" height="17.5"/>
<rect x="263.8" y="2.6" class="st0" width="38.4" height="17.5"/>
<rect x="248" y="69.1" class="st0" width="45.4" height="17.5"/>
<rect x="263.8" y="35.8" class="st0" width="29.6" height="17.5"/>
<rect x="187.1" y="69.1" class="st0" width="45.3" height="17.5"/>
<rect x="187.1" y="35.8" class="st0" width="39.9" height="17.5"/>
<rect x="99.6" y="37.6" class="st0" width="33.9" height="17.5"/>
<rect x="-4.1" y="2.6" class="st0" width="17.5" height="66.6"/>
<rect x="41.1" y="2.6" class="st0" width="17.5" height="66.6"/>
<rect x="82.1" y="2.6" class="st0" width="17.5" height="84.1"/>
<rect x="169.6" y="20.1" class="st0" width="17.5" height="49.1"/>
<rect x="248" y="20" class="st0" width="15.8" height="15.9"/>
<rect x="293.4" y="53.2" class="st0" width="15.8" height="15.8"/>
<rect x="13.4" y="69.1" class="st0" width="27.7" height="17.5"/>
<rect x="133.5" y="20.1" class="st0" width="17.5" height="17.5"/>
<rect x="133.5" y="55.1" class="st0" width="17.5" height="31.5"/>
<rect x="13.4" y="2.6" class="st0" width="27.7" height="66.6"/>
<rect x="-4.1" y="69.1" class="st0" width="17.5" height="17.5"/>
<rect x="41.1" y="69.1" class="st0" width="41" height="17.5"/>
<rect x="58.6" y="2.6" class="st0" width="23.5" height="66.6"/>
<rect x="99.6" y="55.1" class="st0" width="33.9" height="31.5"/>
<rect x="99.6" y="20.1" class="st0" width="33.9" height="17.5"/>
<rect x="133.5" y="2.6" class="st0" width="53.5" height="17.5"/>
<rect x="133.5" y="37.6" class="st0" width="17.5" height="17.5"/>
<rect x="151" y="69.1" class="st0" width="36" height="17.5"/>
<rect x="151" y="20.1" class="st0" width="18.5" height="49.1"/>
<rect x="232.3" y="2.6" class="st0" width="31.5" height="17.5"/>
<rect x="187.1" y="20.1" class="st0" width="60.9" height="15.8"/>
<rect x="226.9" y="35.8" class="st0" width="36.9" height="17.5"/>
<rect x="187.1" y="53.4" class="st0" width="106.3" height="15.8"/>
<rect x="232.3" y="69.1" class="st0" width="15.6" height="17.5"/>
<rect x="263.8" y="20.1" class="st0" width="29.6" height="15.8"/>
<rect x="293.4" y="69.1" class="st0" width="15.8" height="17.5"/>
<rect x="293.4" y="20.1" class="st0" width="15.8" height="33.2"/>
<rect x="302.2" y="2.6" class="st0" width="7" height="17.5"/>
<rect x="99.6" y="86.6" class="st0" width="33.9" height="17.5"/>
<rect x="187.1" y="86.6" class="st0" width="45.3" height="17.5"/>
<rect x="263.8" y="86.6" class="st0" width="38.4" height="17.5"/>
<rect x="248" y="153.1" class="st0" width="45.4" height="17.5"/>
<rect x="263.8" y="119.9" class="st0" width="29.6" height="17.5"/>
<rect x="187.1" y="153.1" class="st0" width="45.3" height="17.5"/>
<rect x="187.1" y="119.9" class="st0" width="39.9" height="17.5"/>
<rect x="99.6" y="121.6" class="st0" width="33.9" height="17.5"/>
<rect x="-4.1" y="86.6" class="st0" width="17.5" height="66.6"/>
<rect x="41.1" y="86.6" class="st0" width="17.5" height="66.6"/>
<rect x="82.1" y="86.6" class="st0" width="17.5" height="84.1"/>
<rect x="169.6" y="104.1" class="st0" width="17.5" height="49.1"/>
<rect x="248" y="104" class="st0" width="15.8" height="15.9"/>
<rect x="293.4" y="137.2" class="st0" width="15.8" height="15.9"/>
<rect x="13.4" y="153.1" class="st0" width="27.7" height="17.5"/>
<rect x="133.5" y="104.1" class="st0" width="17.5" height="17.5"/>
<rect x="133.5" y="139.1" class="st0" width="17.5" height="31.5"/>
<rect x="13.4" y="86.6" class="st0" width="27.7" height="66.6"/>
<rect x="-4.1" y="153.1" class="st0" width="17.5" height="17.5"/>
<rect x="41.1" y="153.1" class="st0" width="41" height="17.5"/>
<rect x="58.6" y="86.6" class="st0" width="23.5" height="66.6"/>
<rect x="99.6" y="139.1" class="st0" width="33.9" height="31.5"/>
<rect x="99.6" y="104.1" class="st0" width="33.9" height="17.5"/>
<rect x="133.5" y="86.6" class="st0" width="53.5" height="17.5"/>
<rect x="133.5" y="121.6" class="st0" width="17.5" height="17.5"/>
<rect x="151" y="153.1" class="st0" width="36" height="17.5"/>
<rect x="151" y="104.1" class="st0" width="18.5" height="49.1"/>
<rect x="232.3" y="86.6" class="st0" width="31.5" height="17.5"/>
<rect x="187.1" y="104.1" class="st0" width="60.9" height="15.8"/>
<rect x="226.9" y="119.9" class="st0" width="36.9" height="17.5"/>
<rect x="187.1" y="137.4" class="st0" width="106.3" height="15.8"/>
<rect x="232.3" y="153.1" class="st0" width="15.6" height="17.5"/>
<rect x="263.8" y="104.1" class="st0" width="29.6" height="15.8"/>
<rect x="293.4" y="153.1" class="st0" width="15.8" height="17.5"/>
<rect x="293.4" y="104.1" class="st0" width="15.8" height="33.2"/>
<rect x="302.2" y="86.6" class="st0" width="7" height="17.5"/>
<rect x="99.6" y="170.7" class="st0" width="33.9" height="17.5"/>
<rect x="187.1" y="170.7" class="st0" width="45.3" height="17.5"/>
<rect x="263.8" y="170.7" class="st0" width="38.4" height="17.5"/>
<rect x="248" y="237.2" class="st0" width="45.4" height="17.5"/>
<rect x="263.8" y="203.9" class="st0" width="29.6" height="17.5"/>
<rect x="187.1" y="237.2" class="st0" width="45.3" height="17.5"/>
<rect x="187.1" y="203.9" class="st0" width="39.9" height="17.5"/>
<rect x="99.6" y="205.7" class="st0" width="33.9" height="17.5"/>
<rect x="-4.1" y="170.7" class="st0" width="17.5" height="66.6"/>
<rect x="41.1" y="170.7" class="st0" width="17.5" height="66.6"/>
<rect x="82.1" y="170.7" class="st0" width="17.5" height="84.1"/>
<rect x="169.6" y="188.2" class="st0" width="17.5" height="49.1"/>
<rect x="248" y="188.1" class="st0" width="15.8" height="15.9"/>
<rect x="293.4" y="221.3" class="st0" width="15.8" height="15.9"/>
<rect x="13.4" y="237.2" class="st0" width="27.7" height="17.5"/>
<rect x="133.5" y="188.2" class="st0" width="17.5" height="17.5"/>
<rect x="133.5" y="223.2" class="st0" width="17.5" height="31.5"/>
<rect x="13.4" y="170.7" class="st0" width="27.7" height="66.6"/>
<rect x="-4.1" y="237.2" class="st0" width="17.5" height="17.5"/>
<rect x="41.1" y="237.2" class="st0" width="41" height="17.5"/>
<rect x="58.6" y="170.7" class="st0" width="23.5" height="66.6"/>
<rect x="99.6" y="223.2" class="st0" width="33.9" height="31.5"/>
<rect x="99.6" y="188.2" class="st0" width="33.9" height="17.5"/>
<rect x="133.5" y="170.7" class="st0" width="53.5" height="17.5"/>
<rect x="133.5" y="205.7" class="st0" width="17.5" height="17.5"/>
<rect x="151" y="237.2" class="st0" width="36" height="17.5"/>
<rect x="151" y="188.2" class="st0" width="18.5" height="49.1"/>
<rect x="232.3" y="170.7" class="st0" width="31.5" height="17.5"/>
<rect x="187.1" y="188.2" class="st0" width="60.9" height="15.8"/>
<rect x="226.9" y="204" class="st0" width="36.9" height="17.5"/>
<rect x="187.1" y="221.4" class="st0" width="106.3" height="15.8"/>
<rect x="232.3" y="237.2" class="st0" width="15.6" height="17.5"/>
<rect x="263.8" y="188.2" class="st0" width="29.6" height="15.8"/>
<rect x="293.4" y="237.2" class="st0" width="15.8" height="17.5"/>
<rect x="293.4" y="188.2" class="st0" width="15.8" height="33.2"/>
<rect x="302.2" y="170.7" class="st0" width="7" height="17.5"/>
<rect x="99.6" y="254.7" class="st0" width="33.9" height="17.5"/>
<rect x="187.1" y="254.7" class="st0" width="45.3" height="17.5"/>
<rect x="263.8" y="254.7" class="st0" width="38.4" height="17.5"/>
<rect x="248" y="321.2" class="st0" width="45.4" height="17.5"/>
<rect x="263.8" y="288" class="st0" width="29.6" height="17.5"/>
<rect x="187.1" y="321.2" class="st0" width="45.3" height="17.5"/>
<rect x="187.1" y="288" class="st0" width="39.9" height="17.5"/>
<rect x="99.6" y="289.7" class="st0" width="33.9" height="17.5"/>
<rect x="-4.1" y="254.7" class="st0" width="17.5" height="66.6"/>
<rect x="41.1" y="254.7" class="st0" width="17.5" height="66.6"/>
<rect x="82.1" y="254.7" class="st0" width="17.5" height="84.1"/>
<rect x="169.6" y="272.2" class="st0" width="17.5" height="49.1"/>
<rect x="248" y="272.2" class="st0" width="15.8" height="15.9"/>
<rect x="293.4" y="305.4" class="st0" width="15.8" height="15.9"/>
<rect x="13.4" y="321.2" class="st0" width="27.7" height="17.5"/>
<rect x="133.5" y="272.2" class="st0" width="17.5" height="17.5"/>
<rect x="133.5" y="307.2" class="st0" width="17.5" height="31.5"/>
<rect x="13.4" y="254.7" class="st0" width="27.7" height="66.6"/>
<rect x="-4.1" y="321.2" class="st0" width="17.5" height="17.5"/>
<rect x="41.1" y="321.2" class="st0" width="41" height="17.5"/>
<rect x="58.6" y="254.7" class="st0" width="23.5" height="66.6"/>
<rect x="99.6" y="307.2" class="st0" width="33.9" height="31.5"/>
<rect x="99.6" y="272.2" class="st0" width="33.9" height="17.5"/>
<rect x="133.5" y="254.7" class="st0" width="53.5" height="17.5"/>
<rect x="133.5" y="289.7" class="st0" width="17.5" height="17.5"/>
<rect x="151" y="321.2" class="st0" width="36" height="17.5"/>
<rect x="151" y="272.2" class="st0" width="18.5" height="49.1"/>
<rect x="232.3" y="254.7" class="st0" width="31.5" height="17.5"/>
<rect x="187.1" y="272.2" class="st0" width="60.9" height="15.8"/>
<rect x="226.9" y="288" class="st0" width="36.9" height="17.5"/>
<rect x="187.1" y="305.5" class="st0" width="106.3" height="15.8"/>
<rect x="232.3" y="321.2" class="st0" width="15.6" height="17.5"/>
<rect x="263.8" y="272.2" class="st0" width="29.6" height="15.8"/>
<rect x="293.4" y="321.2" class="st0" width="15.8" height="17.5"/>
<rect x="293.4" y="272.2" class="st0" width="15.8" height="33.2"/>
<rect x="302.2" y="254.7" class="st0" width="7" height="17.5"/>
<rect x="99.6" y="338.7" class="st0" width="33.9" height="17.5"/>
<rect x="187.1" y="338.7" class="st0" width="45.3" height="17.5"/>
<rect x="263.8" y="338.7" class="st0" width="38.4" height="17.5"/>
<rect x="248" y="405.3" class="st0" width="45.4" height="17.5"/>
<rect x="263.8" y="372" class="st0" width="29.6" height="17.5"/>
<rect x="187.1" y="405.3" class="st0" width="45.3" height="17.5"/>
<rect x="187.1" y="372" class="st0" width="39.9" height="17.5"/>
<rect x="99.6" y="373.8" class="st0" width="33.9" height="17.5"/>
<rect x="-4.1" y="338.7" class="st0" width="17.5" height="66.6"/>
<rect x="41.1" y="338.7" class="st0" width="17.5" height="66.6"/>
<rect x="82.1" y="338.7" class="st0" width="17.5" height="84.1"/>
<rect x="169.6" y="356.3" class="st0" width="17.5" height="49.1"/>
<rect x="248" y="356.2" class="st0" width="15.8" height="15.8"/>
<rect x="293.4" y="389.4" class="st0" width="15.8" height="15.8"/>
<rect x="13.4" y="405.3" class="st0" width="27.7" height="17.5"/>
<rect x="133.5" y="356.3" class="st0" width="17.5" height="17.5"/>
<rect x="133.5" y="391.3" class="st0" width="17.5" height="31.5"/>
<rect x="13.4" y="338.7" class="st0" width="27.7" height="66.6"/>
<rect x="-4.1" y="405.3" class="st0" width="17.5" height="17.5"/>
<rect x="41.1" y="405.3" class="st0" width="41" height="17.5"/>
<rect x="58.6" y="338.7" class="st0" width="23.5" height="66.6"/>
<rect x="99.6" y="391.3" class="st0" width="33.9" height="31.5"/>
<rect x="99.6" y="356.3" class="st0" width="33.9" height="17.5"/>
<rect x="133.5" y="338.7" class="st0" width="53.5" height="17.5"/>
<rect x="133.5" y="373.8" class="st0" width="17.5" height="17.5"/>
<rect x="151" y="405.3" class="st0" width="36" height="17.5"/>
<rect x="151" y="356.3" class="st0" width="18.5" height="49.1"/>
<rect x="232.3" y="338.7" class="st0" width="31.5" height="17.5"/>
<rect x="187.1" y="356.3" class="st0" width="60.9" height="15.8"/>
<rect x="226.9" y="372.1" class="st0" width="36.9" height="17.5"/>
<rect x="187.1" y="389.5" class="st0" width="106.3" height="15.8"/>
<rect x="232.3" y="405.3" class="st0" width="15.6" height="17.5"/>
<rect x="263.8" y="356.3" class="st0" width="29.6" height="15.8"/>
<rect x="293.4" y="405.3" class="st0" width="15.8" height="17.5"/>
<rect x="293.4" y="356.3" class="st0" width="15.8" height="33.2"/>
<rect x="302.2" y="338.7" class="st0" width="7" height="17.5"/>
<rect x="99.6" y="422.8" class="st0" width="33.9" height="17.5"/>
<rect x="187.1" y="422.8" class="st0" width="45.3" height="17.5"/>
<rect x="263.8" y="422.8" class="st0" width="38.4" height="17.5"/>
<rect x="248" y="489.3" class="st0" width="45.4" height="17.5"/>
<rect x="263.8" y="456" class="st0" width="29.6" height="17.5"/>
<rect x="187.1" y="489.3" class="st0" width="45.3" height="17.5"/>
<rect x="187.1" y="456" class="st0" width="39.9" height="17.5"/>
<rect x="99.6" y="457.8" class="st0" width="33.9" height="17.5"/>
<rect x="-4.1" y="422.8" class="st0" width="17.5" height="66.6"/>
<rect x="41.1" y="422.8" class="st0" width="17.5" height="66.6"/>
<rect x="82.1" y="422.8" class="st0" width="17.5" height="84.1"/>
<rect x="169.6" y="440.3" class="st0" width="17.5" height="49.1"/>
<rect x="248" y="440.3" class="st0" width="15.8" height="15.8"/>
<rect x="293.4" y="473.5" class="st0" width="15.8" height="15.8"/>
<rect x="13.4" y="489.3" class="st0" width="27.7" height="17.5"/>
<rect x="133.5" y="440.3" class="st0" width="17.5" height="17.5"/>
<rect x="133.5" y="475.3" class="st0" width="17.5" height="31.5"/>
<rect x="13.4" y="422.8" class="st0" width="27.7" height="66.6"/>
<rect x="-4.1" y="489.3" class="st0" width="17.5" height="17.5"/>
<rect x="41.1" y="489.3" class="st0" width="41" height="17.5"/>
<rect x="58.6" y="422.8" class="st0" width="23.5" height="66.6"/>
<rect x="99.6" y="475.3" class="st0" width="33.9" height="31.5"/>
<rect x="99.6" y="440.3" class="st0" width="33.9" height="17.5"/>
<rect x="133.5" y="422.8" class="st0" width="53.5" height="17.5"/>
<rect x="133.5" y="457.8" class="st0" width="17.5" height="17.5"/>
<rect x="151" y="489.3" class="st0" width="36" height="17.5"/>
<rect x="151" y="440.3" class="st0" width="18.5" height="49.1"/>
<rect x="232.3" y="422.8" class="st0" width="31.5" height="17.5"/>
<rect x="187.1" y="440.3" class="st0" width="60.9" height="15.8"/>
<rect x="226.9" y="456.1" class="st0" width="36.9" height="17.5"/>
<rect x="187.1" y="473.6" class="st0" width="106.3" height="15.8"/>
<rect x="232.3" y="489.3" class="st0" width="15.6" height="17.5"/>
<rect x="263.8" y="440.3" class="st0" width="29.6" height="15.8"/>
<rect x="293.4" y="489.3" class="st0" width="15.8" height="17.5"/>
<rect x="293.4" y="440.3" class="st0" width="15.8" height="33.2"/>
<rect x="302.2" y="422.8" class="st0" width="7" height="17.5"/>
<rect x="99.6" y="506.8" class="st0" width="33.9" height="17.5"/>
<rect x="187.1" y="506.8" class="st0" width="45.3" height="17.5"/>
<rect x="263.8" y="506.8" class="st0" width="38.4" height="17.5"/>
<rect x="248" y="573.4" class="st0" width="45.4" height="17.5"/>
<rect x="263.8" y="540.1" class="st0" width="29.6" height="17.5"/>
<rect x="187.1" y="573.4" class="st0" width="45.3" height="17.5"/>
<rect x="187.1" y="540.1" class="st0" width="39.9" height="17.5"/>
<rect x="99.6" y="541.9" class="st0" width="33.9" height="17.5"/>
<rect x="-4.1" y="506.8" class="st0" width="17.5" height="66.6"/>
<rect x="41.1" y="506.8" class="st0" width="17.5" height="66.6"/>
<rect x="82.1" y="506.8" class="st0" width="17.5" height="84.1"/>
<rect x="169.6" y="524.4" class="st0" width="17.5" height="49.1"/>
<rect x="248" y="524.3" class="st0" width="15.8" height="15.8"/>
<rect x="293.4" y="557.5" class="st0" width="15.8" height="15.8"/>
<rect x="13.4" y="573.4" class="st0" width="27.7" height="17.5"/>
<rect x="133.5" y="524.4" class="st0" width="17.5" height="17.5"/>
<rect x="133.5" y="559.4" class="st0" width="17.5" height="31.5"/>
<rect x="13.4" y="506.8" class="st0" width="27.7" height="66.6"/>
<rect x="-4.1" y="573.4" class="st0" width="17.5" height="17.5"/>
<rect x="41.1" y="573.4" class="st0" width="41" height="17.5"/>
<rect x="58.6" y="506.8" class="st0" width="23.5" height="66.6"/>
<rect x="99.6" y="559.4" class="st0" width="33.9" height="31.5"/>
<rect x="99.6" y="524.4" class="st0" width="33.9" height="17.5"/>
<rect x="133.5" y="506.8" class="st0" width="53.5" height="17.5"/>
<rect x="133.5" y="541.9" class="st0" width="17.5" height="17.5"/>
<rect x="151" y="573.4" class="st0" width="36" height="17.5"/>
<rect x="151" y="524.4" class="st0" width="18.5" height="49.1"/>
<rect x="232.3" y="506.8" class="st0" width="31.5" height="17.5"/>
<rect x="187.1" y="524.4" class="st0" width="60.9" height="15.8"/>
<rect x="226.9" y="540.2" class="st0" width="36.9" height="17.5"/>
<rect x="187.1" y="557.6" class="st0" width="106.3" height="15.8"/>
<rect x="232.3" y="573.4" class="st0" width="15.6" height="17.5"/>
<rect x="263.8" y="524.4" class="st0" width="29.6" height="15.8"/>
<rect x="293.4" y="573.4" class="st0" width="15.8" height="17.5"/>
<rect x="293.4" y="524.4" class="st0" width="15.8" height="33.2"/>
<rect x="302.2" y="506.8" class="st0" width="7" height="17.5"/>
<rect x="99.6" y="590.9" class="st0" width="33.9" height="17.5"/>
<rect x="187.1" y="590.9" class="st0" width="45.3" height="17.5"/>
<rect x="263.8" y="590.9" class="st0" width="38.4" height="17.5"/>
<rect x="248" y="657.4" class="st0" width="45.4" height="17.5"/>
<rect x="263.8" y="624.2" class="st0" width="29.6" height="17.5"/>
<rect x="187.1" y="657.4" class="st0" width="45.3" height="17.5"/>
<rect x="187.1" y="624.2" class="st0" width="39.9" height="17.5"/>
<rect x="99.6" y="625.9" class="st0" width="33.9" height="17.5"/>
<rect x="-4.1" y="590.9" class="st0" width="17.5" height="66.6"/>
<rect x="41.1" y="590.9" class="st0" width="17.5" height="66.6"/>
<rect x="82.1" y="590.9" class="st0" width="17.5" height="84.1"/>
<rect x="169.6" y="608.4" class="st0" width="17.5" height="49.1"/>
<rect x="248" y="608.4" class="st0" width="15.8" height="15.8"/>
<rect x="293.4" y="641.6" class="st0" width="15.8" height="15.8"/>
<rect x="13.4" y="657.4" class="st0" width="27.7" height="17.5"/>
<rect x="133.5" y="608.4" class="st0" width="17.5" height="17.5"/>
<rect x="133.5" y="643.5" class="st0" width="17.5" height="31.5"/>
<rect x="13.4" y="590.9" class="st0" width="27.7" height="66.6"/>
<rect x="-4.1" y="657.4" class="st0" width="17.5" height="17.5"/>
<rect x="41.1" y="657.4" class="st0" width="41" height="17.5"/>
<rect x="58.6" y="590.9" class="st0" width="23.5" height="66.6"/>
<rect x="99.6" y="643.5" class="st0" width="33.9" height="31.5"/>
<rect x="99.6" y="608.4" class="st0" width="33.9" height="17.5"/>
<rect x="133.5" y="590.9" class="st0" width="53.5" height="17.5"/>
<rect x="133.5" y="625.9" class="st0" width="17.5" height="17.5"/>
<rect x="151" y="657.4" class="st0" width="36" height="17.5"/>
<rect x="151" y="608.4" class="st0" width="18.5" height="49.1"/>
<rect x="232.3" y="590.9" class="st0" width="31.5" height="17.5"/>
<rect x="187.1" y="608.4" class="st0" width="60.9" height="15.8"/>
<rect x="226.9" y="624.2" class="st0" width="36.9" height="17.5"/>
<rect x="187.1" y="641.7" class="st0" width="106.3" height="15.8"/>
<rect x="232.3" y="657.4" class="st0" width="15.6" height="17.5"/>
<rect x="263.8" y="608.4" class="st0" width="29.6" height="15.8"/>
<rect x="293.4" y="657.4" class="st0" width="15.8" height="17.5"/>
<rect x="293.4" y="608.4" class="st0" width="15.8" height="33.2"/>
<rect x="302.2" y="590.9" class="st0" width="7" height="17.5"/>
<rect x="443.5" y="2.6" class="st0" width="50.7" height="17.5"/>
<rect x="677.4" y="2.6" class="st0" width="33.9" height="17.5"/>
<rect x="677.4" y="37.6" class="st0" width="33.9" height="17.5"/>
<rect x="529.2" y="2.6" class="st0" width="17.5" height="66.6"/>
<rect x="573.7" y="2.6" class="st0" width="17.5" height="66.6"/>
<rect x="618.9" y="2.6" class="st0" width="17.5" height="66.6"/>
<rect x="659.9" y="2.6" class="st0" width="17.5" height="84.1"/>
<rect x="546.7" y="69.1" class="st0" width="27" height="17.5"/>
<rect x="591.2" y="69.1" class="st0" width="27.7" height="17.5"/>
<rect x="711.3" y="20.1" class="st0" width="17.5" height="17.5"/>
<rect x="711.3" y="55.1" class="st0" width="17.5" height="31.5"/>
<rect x="426.1" y="20.1" class="st0" width="17.5" height="49.1"/>
<rect x="358.4" y="2.6" class="st0" width="17.5" height="66.6"/>
<rect x="494.2" y="20.1" class="st0" width="17.5" height="49.1"/>
<rect x="443.5" y="69.1" class="st0" width="50.7" height="17.5"/>
<rect x="375.9" y="69.1" class="st0" width="42.9" height="17.5"/>
<rect x="375.9" y="2.6" class="st0" width="50.1" height="66.6"/>
<rect x="358.4" y="69.1" class="st0" width="17.5" height="17.5"/>
<rect x="426.1" y="2.6" class="st0" width="17.5" height="17.5"/>
<rect x="494.2" y="2.6" class="st0" width="35" height="17.5"/>
<rect x="418.8" y="69.1" class="st0" width="24.7" height="17.5"/>
<rect x="494.2" y="69.1" class="st0" width="52.5" height="17.5"/>
<rect x="443.5" y="20.1" class="st0" width="50.7" height="49.1"/>
<rect x="511.7" y="20.1" class="st0" width="17.5" height="49.2"/>
<rect x="546.7" y="2.6" class="st0" width="27" height="66.6"/>
<rect x="591.2" y="2.6" class="st0" width="27.7" height="66.6"/>
<rect x="573.7" y="69.1" class="st0" width="17.5" height="17.5"/>
<rect x="618.9" y="69.1" class="st0" width="41" height="17.5"/>
<rect x="636.4" y="2.6" class="st0" width="23.5" height="66.6"/>
<rect x="677.4" y="55.1" class="st0" width="33.9" height="31.5"/>
<rect x="677.4" y="20.1" class="st0" width="33.9" height="17.5"/>
<rect x="711.3" y="37.6" class="st0" width="17.5" height="17.5"/>
<rect x="340.8" y="2.6" class="st0" width="17.6" height="84.1"/>
<rect x="309.2" y="2.6" class="st0" width="31.5" height="84.1"/>
<rect x="443.5" y="86.6" class="st0" width="50.7" height="17.5"/>
<rect x="677.4" y="86.6" class="st0" width="33.9" height="17.5"/>
<rect x="677.4" y="121.6" class="st0" width="33.9" height="17.5"/>
<rect x="529.2" y="86.6" class="st0" width="17.5" height="66.6"/>
<rect x="573.7" y="86.6" class="st0" width="17.5" height="66.6"/>
<rect x="618.9" y="86.6" class="st0" width="17.5" height="66.6"/>
<rect x="659.9" y="86.6" class="st0" width="17.5" height="84.1"/>
<rect x="546.7" y="153.1" class="st0" width="27" height="17.5"/>
<rect x="591.2" y="153.1" class="st0" width="27.7" height="17.5"/>
<rect x="711.3" y="104.1" class="st0" width="17.5" height="17.5"/>
<rect x="711.3" y="139.1" class="st0" width="17.5" height="31.5"/>
<rect x="426.1" y="104.1" class="st0" width="17.5" height="49.1"/>
<rect x="358.4" y="86.6" class="st0" width="17.5" height="66.6"/>
<rect x="494.2" y="104.1" class="st0" width="17.5" height="49.1"/>
<rect x="443.5" y="153.1" class="st0" width="50.7" height="17.5"/>
<rect x="375.9" y="153.1" class="st0" width="42.9" height="17.5"/>
<rect x="375.9" y="86.6" class="st0" width="50.1" height="66.6"/>
<rect x="358.4" y="153.1" class="st0" width="17.5" height="17.5"/>
<rect x="426.1" y="86.6" class="st0" width="17.5" height="17.5"/>
<rect x="494.2" y="86.6" class="st0" width="35" height="17.5"/>
<rect x="418.8" y="153.1" class="st0" width="24.7" height="17.5"/>
<rect x="494.2" y="153.1" class="st0" width="52.5" height="17.5"/>
<rect x="443.5" y="104.1" class="st0" width="50.7" height="49.1"/>
<rect x="511.7" y="104.1" class="st0" width="17.5" height="49.3"/>
<rect x="546.7" y="86.6" class="st0" width="27" height="66.6"/>
<rect x="591.2" y="86.6" class="st0" width="27.7" height="66.6"/>
<rect x="573.7" y="153.1" class="st0" width="17.5" height="17.5"/>
<rect x="618.9" y="153.1" class="st0" width="41" height="17.5"/>
<rect x="636.4" y="86.6" class="st0" width="23.5" height="66.6"/>
<rect x="677.4" y="139.1" class="st0" width="33.9" height="31.5"/>
<rect x="677.4" y="104.1" class="st0" width="33.9" height="17.5"/>
<rect x="711.3" y="121.6" class="st0" width="17.5" height="17.5"/>
<rect x="340.8" y="86.6" class="st0" width="17.6" height="84.1"/>
<rect x="309.2" y="86.6" class="st0" width="31.5" height="84.1"/>
<rect x="443.5" y="170.7" class="st0" width="50.7" height="17.5"/>
<rect x="677.4" y="170.7" class="st0" width="33.9" height="17.5"/>
<rect x="677.4" y="205.7" class="st0" width="33.9" height="17.5"/>
<rect x="529.2" y="170.7" class="st0" width="17.5" height="66.6"/>
<rect x="573.7" y="170.7" class="st0" width="17.5" height="66.6"/>
<rect x="618.9" y="170.7" class="st0" width="17.5" height="66.6"/>
<rect x="659.9" y="170.7" class="st0" width="17.5" height="84.1"/>
<rect x="546.7" y="237.2" class="st0" width="27" height="17.5"/>
<rect x="591.2" y="237.2" class="st0" width="27.7" height="17.5"/>
<rect x="711.3" y="188.2" class="st0" width="17.5" height="17.5"/>
<rect x="711.3" y="223.2" class="st0" width="17.5" height="31.5"/>
<rect x="426.1" y="188.2" class="st0" width="17.5" height="49.1"/>
<rect x="358.4" y="170.7" class="st0" width="17.5" height="66.6"/>
<rect x="494.2" y="188.2" class="st0" width="17.5" height="49.1"/>
<rect x="443.5" y="237.2" class="st0" width="50.7" height="17.5"/>
<rect x="375.9" y="237.2" class="st0" width="42.9" height="17.5"/>
<rect x="375.9" y="170.7" class="st0" width="50.1" height="66.6"/>
<rect x="358.4" y="237.2" class="st0" width="17.5" height="17.5"/>
<rect x="426.1" y="170.7" class="st0" width="17.5" height="17.5"/>
<rect x="494.2" y="170.7" class="st0" width="35" height="17.5"/>
<rect x="418.8" y="237.2" class="st0" width="24.7" height="17.5"/>
<rect x="494.2" y="237.2" class="st0" width="52.5" height="17.5"/>
<rect x="443.5" y="188.2" class="st0" width="50.7" height="49.1"/>
<rect x="511.7" y="188.2" class="st0" width="17.5" height="49.3"/>
<rect x="546.7" y="170.7" class="st0" width="27" height="66.6"/>
<rect x="591.2" y="170.7" class="st0" width="27.7" height="66.6"/>
<rect x="573.7" y="237.2" class="st0" width="17.5" height="17.5"/>
<rect x="618.9" y="237.2" class="st0" width="41" height="17.5"/>
<rect x="636.4" y="170.7" class="st0" width="23.5" height="66.6"/>
<rect x="677.4" y="223.2" class="st0" width="33.9" height="31.5"/>
<rect x="677.4" y="188.2" class="st0" width="33.9" height="17.5"/>
<rect x="711.3" y="205.7" class="st0" width="17.5" height="17.5"/>
<rect x="340.8" y="170.7" class="st0" width="17.6" height="84.1"/>
<rect x="309.2" y="170.7" class="st0" width="31.5" height="84.1"/>
<rect x="443.5" y="254.7" class="st0" width="50.7" height="17.5"/>
<rect x="677.4" y="254.7" class="st0" width="33.9" height="17.5"/>
<rect x="677.4" y="289.7" class="st0" width="33.9" height="17.5"/>
<rect x="529.2" y="254.7" class="st0" width="17.5" height="66.6"/>
<rect x="573.7" y="254.7" class="st0" width="17.5" height="66.6"/>
<rect x="618.9" y="254.7" class="st0" width="17.5" height="66.6"/>
<rect x="659.9" y="254.7" class="st0" width="17.5" height="84.1"/>
<rect x="546.7" y="321.2" class="st0" width="27" height="17.5"/>
<rect x="591.2" y="321.2" class="st0" width="27.7" height="17.5"/>
<rect x="711.3" y="272.2" class="st0" width="17.5" height="17.5"/>
<rect x="711.3" y="307.2" class="st0" width="17.5" height="31.5"/>
<rect x="426.1" y="272.2" class="st0" width="17.5" height="49.1"/>
<rect x="358.4" y="254.7" class="st0" width="17.5" height="66.6"/>
<rect x="494.2" y="272.2" class="st0" width="17.5" height="49.1"/>
<rect x="443.5" y="321.2" class="st0" width="50.7" height="17.5"/>
<rect x="375.9" y="321.2" class="st0" width="42.9" height="17.5"/>
<rect x="375.9" y="254.7" class="st0" width="50.1" height="66.6"/>
<rect x="358.4" y="321.2" class="st0" width="17.5" height="17.5"/>
<rect x="426.1" y="254.7" class="st0" width="17.5" height="17.5"/>
<rect x="494.2" y="254.7" class="st0" width="35" height="17.5"/>
<rect x="418.8" y="321.2" class="st0" width="24.7" height="17.5"/>
<rect x="494.2" y="321.2" class="st0" width="52.5" height="17.5"/>
<rect x="443.5" y="272.2" class="st0" width="50.7" height="49.1"/>
<rect x="511.7" y="272.2" class="st0" width="17.5" height="49.3"/>
<rect x="546.7" y="254.7" class="st0" width="27" height="66.6"/>
<rect x="591.2" y="254.7" class="st0" width="27.7" height="66.6"/>
<rect x="573.7" y="321.2" class="st0" width="17.5" height="17.5"/>
<rect x="618.9" y="321.2" class="st0" width="41" height="17.5"/>
<rect x="636.4" y="254.7" class="st0" width="23.5" height="66.6"/>
<rect x="677.4" y="307.2" class="st0" width="33.9" height="31.5"/>
<rect x="677.4" y="272.2" class="st0" width="33.9" height="17.5"/>
<rect x="711.3" y="289.7" class="st0" width="17.5" height="17.5"/>
<rect x="340.8" y="254.7" class="st0" width="17.6" height="84.1"/>
<rect x="309.2" y="254.7" class="st0" width="31.5" height="84.1"/>
<rect x="443.5" y="338.7" class="st0" width="50.7" height="17.5"/>
<rect x="677.4" y="338.7" class="st0" width="33.9" height="17.5"/>
<rect x="677.4" y="373.8" class="st0" width="33.9" height="17.5"/>
<rect x="529.2" y="338.7" class="st0" width="17.5" height="66.6"/>
<rect x="573.7" y="338.7" class="st0" width="17.5" height="66.6"/>
<rect x="618.9" y="338.7" class="st0" width="17.5" height="66.6"/>
<rect x="659.9" y="338.7" class="st0" width="17.5" height="84.1"/>
<rect x="546.7" y="405.3" class="st0" width="27" height="17.5"/>
<rect x="591.2" y="405.3" class="st0" width="27.7" height="17.5"/>
<rect x="711.3" y="356.3" class="st0" width="17.5" height="17.5"/>
<rect x="711.3" y="391.3" class="st0" width="17.5" height="31.5"/>
<rect x="426.1" y="356.3" class="st0" width="17.5" height="49.1"/>
<rect x="358.4" y="338.7" class="st0" width="17.5" height="66.6"/>
<rect x="494.2" y="356.3" class="st0" width="17.5" height="49.1"/>
<rect x="443.5" y="405.3" class="st0" width="50.7" height="17.5"/>
<rect x="375.9" y="405.3" class="st0" width="42.9" height="17.5"/>
<rect x="375.9" y="338.7" class="st0" width="50.1" height="66.6"/>
<rect x="358.4" y="405.3" class="st0" width="17.5" height="17.5"/>
<rect x="426.1" y="338.7" class="st0" width="17.5" height="17.5"/>
<rect x="494.2" y="338.7" class="st0" width="35" height="17.5"/>
<rect x="418.8" y="405.3" class="st0" width="24.7" height="17.5"/>
<rect x="494.2" y="405.3" class="st0" width="52.5" height="17.5"/>
<rect x="443.5" y="356.3" class="st0" width="50.7" height="49.1"/>
<rect x="511.7" y="356.3" class="st0" width="17.5" height="49.2"/>
<rect x="546.7" y="338.7" class="st0" width="27" height="66.6"/>
<rect x="591.2" y="338.7" class="st0" width="27.7" height="66.6"/>
<rect x="573.7" y="405.3" class="st0" width="17.5" height="17.5"/>
<rect x="618.9" y="405.3" class="st0" width="41" height="17.5"/>
<rect x="636.4" y="338.7" class="st0" width="23.5" height="66.6"/>
<rect x="677.4" y="391.3" class="st0" width="33.9" height="31.5"/>
<rect x="677.4" y="356.3" class="st0" width="33.9" height="17.5"/>
<rect x="711.3" y="373.8" class="st0" width="17.5" height="17.5"/>
<rect x="340.8" y="338.7" class="st0" width="17.6" height="84.1"/>
<rect x="309.2" y="338.7" class="st0" width="31.5" height="84.1"/>
<rect x="443.5" y="422.8" class="st0" width="50.7" height="17.5"/>
<rect x="677.4" y="422.8" class="st0" width="33.9" height="17.5"/>
<rect x="677.4" y="457.8" class="st0" width="33.9" height="17.5"/>
<rect x="529.2" y="422.8" class="st0" width="17.5" height="66.6"/>
<rect x="573.7" y="422.8" class="st0" width="17.5" height="66.6"/>
<rect x="618.9" y="422.8" class="st0" width="17.5" height="66.6"/>
<rect x="659.9" y="422.8" class="st0" width="17.5" height="84.1"/>
<rect x="546.7" y="489.3" class="st0" width="27" height="17.5"/>
<rect x="591.2" y="489.3" class="st0" width="27.7" height="17.5"/>
<rect x="711.3" y="440.3" class="st0" width="17.5" height="17.5"/>
<rect x="711.3" y="475.3" class="st0" width="17.5" height="31.5"/>
<rect x="426.1" y="440.3" class="st0" width="17.5" height="49.1"/>
<rect x="358.4" y="422.8" class="st0" width="17.5" height="66.6"/>
<rect x="494.2" y="440.3" class="st0" width="17.5" height="49.1"/>
<rect x="443.5" y="489.3" class="st0" width="50.7" height="17.5"/>
<rect x="375.9" y="489.3" class="st0" width="42.9" height="17.5"/>
<rect x="375.9" y="422.8" class="st0" width="50.1" height="66.6"/>
<rect x="358.4" y="489.3" class="st0" width="17.5" height="17.5"/>
<rect x="426.1" y="422.8" class="st0" width="17.5" height="17.5"/>
<rect x="494.2" y="422.8" class="st0" width="35" height="17.5"/>
<rect x="418.8" y="489.3" class="st0" width="24.7" height="17.5"/>
<rect x="494.2" y="489.3" class="st0" width="52.5" height="17.5"/>
<rect x="443.5" y="440.3" class="st0" width="50.7" height="49.1"/>
<rect x="511.7" y="440.3" class="st0" width="17.5" height="49.2"/>
<rect x="546.7" y="422.8" class="st0" width="27" height="66.6"/>
<rect x="591.2" y="422.8" class="st0" width="27.7" height="66.6"/>
<rect x="573.7" y="489.3" class="st0" width="17.5" height="17.5"/>
<rect x="618.9" y="489.3" class="st0" width="41" height="17.5"/>
<rect x="636.4" y="422.8" class="st0" width="23.5" height="66.6"/>
<rect x="677.4" y="475.3" class="st0" width="33.9" height="31.5"/>
<rect x="677.4" y="440.3" class="st0" width="33.9" height="17.5"/>
<rect x="711.3" y="457.8" class="st0" width="17.5" height="17.5"/>
<rect x="340.8" y="422.8" class="st0" width="17.6" height="84.1"/>
<rect x="309.2" y="422.8" class="st0" width="31.5" height="84.1"/>
<rect x="443.5" y="506.8" class="st0" width="50.7" height="17.5"/>
<rect x="677.4" y="506.8" class="st0" width="33.9" height="17.5"/>
<rect x="677.4" y="541.9" class="st0" width="33.9" height="17.5"/>
<rect x="529.2" y="506.8" class="st0" width="17.5" height="66.6"/>
<rect x="573.7" y="506.8" class="st0" width="17.5" height="66.6"/>
<rect x="618.9" y="506.8" class="st0" width="17.5" height="66.6"/>
<rect x="659.9" y="506.8" class="st0" width="17.5" height="84.1"/>
<rect x="546.7" y="573.4" class="st0" width="27" height="17.5"/>
<rect x="591.2" y="573.4" class="st0" width="27.7" height="17.5"/>
<rect x="711.3" y="524.4" class="st0" width="17.5" height="17.5"/>
<rect x="711.3" y="559.4" class="st0" width="17.5" height="31.5"/>
<rect x="426.1" y="524.4" class="st0" width="17.5" height="49.1"/>
<rect x="358.4" y="506.8" class="st0" width="17.5" height="66.6"/>
<rect x="494.2" y="524.4" class="st0" width="17.5" height="49.1"/>
<rect x="443.5" y="573.4" class="st0" width="50.7" height="17.5"/>
<rect x="375.9" y="573.4" class="st0" width="42.9" height="17.5"/>
<rect x="375.9" y="506.8" class="st0" width="50.1" height="66.6"/>
<rect x="358.4" y="573.4" class="st0" width="17.5" height="17.5"/>
<rect x="426.1" y="506.8" class="st0" width="17.5" height="17.5"/>
<rect x="494.2" y="506.8" class="st0" width="35" height="17.5"/>
<rect x="418.8" y="573.4" class="st0" width="24.7" height="17.5"/>
<rect x="494.2" y="573.4" class="st0" width="52.5" height="17.5"/>
<rect x="443.5" y="524.4" class="st0" width="50.7" height="49.1"/>
<rect x="511.7" y="524.4" class="st0" width="17.5" height="49.2"/>
<rect x="546.7" y="506.8" class="st0" width="27" height="66.6"/>
<rect x="591.2" y="506.8" class="st0" width="27.7" height="66.6"/>
<rect x="573.7" y="573.4" class="st0" width="17.5" height="17.5"/>
<rect x="618.9" y="573.4" class="st0" width="41" height="17.5"/>
<rect x="636.4" y="506.8" class="st0" width="23.5" height="66.6"/>
<rect x="677.4" y="559.4" class="st0" width="33.9" height="31.5"/>
<rect x="677.4" y="524.4" class="st0" width="33.9" height="17.5"/>
<rect x="711.3" y="541.9" class="st0" width="17.5" height="17.5"/>
<rect x="340.8" y="506.8" class="st0" width="17.6" height="84.1"/>
<rect x="309.2" y="506.8" class="st0" width="31.5" height="84.1"/>
<rect x="443.5" y="590.9" class="st0" width="50.7" height="17.5"/>
<rect x="677.4" y="590.9" class="st0" width="33.9" height="17.5"/>
<rect x="677.4" y="625.9" class="st0" width="33.9" height="17.5"/>
<rect x="529.2" y="590.9" class="st0" width="17.5" height="66.6"/>
<rect x="573.7" y="590.9" class="st0" width="17.5" height="66.6"/>
<rect x="618.9" y="590.9" class="st0" width="17.5" height="66.6"/>
<rect x="659.9" y="590.9" class="st0" width="17.5" height="84.1"/>
<rect x="546.7" y="657.4" class="st0" width="27" height="17.5"/>
<rect x="591.2" y="657.4" class="st0" width="27.7" height="17.5"/>
<rect x="711.3" y="608.4" class="st0" width="17.5" height="17.5"/>
<rect x="711.3" y="643.5" class="st0" width="17.5" height="31.5"/>
<rect x="426.1" y="608.4" class="st0" width="17.5" height="49.1"/>
<rect x="358.4" y="590.9" class="st0" width="17.5" height="66.6"/>
<rect x="494.2" y="608.4" class="st0" width="17.5" height="49.1"/>
<rect x="443.5" y="657.4" class="st0" width="50.7" height="17.5"/>
<rect x="375.9" y="657.4" class="st0" width="42.9" height="17.5"/>
<rect x="375.9" y="590.9" class="st0" width="50.1" height="66.6"/>
<rect x="358.4" y="657.4" class="st0" width="17.5" height="17.5"/>
<rect x="426.1" y="590.9" class="st0" width="17.5" height="17.5"/>
<rect x="494.2" y="590.9" class="st0" width="35" height="17.5"/>
<rect x="418.8" y="657.4" class="st0" width="24.7" height="17.5"/>
<rect x="494.2" y="657.4" class="st0" width="52.5" height="17.5"/>
<rect x="443.5" y="608.4" class="st0" width="50.7" height="49.1"/>
<rect x="511.7" y="608.4" class="st0" width="17.5" height="49.3"/>
<rect x="546.7" y="590.9" class="st0" width="27" height="66.6"/>
<rect x="591.2" y="590.9" class="st0" width="27.7" height="66.6"/>
<rect x="573.7" y="657.4" class="st0" width="17.5" height="17.5"/>
<rect x="618.9" y="657.4" class="st0" width="41" height="17.5"/>
<rect x="636.4" y="590.9" class="st0" width="23.5" height="66.6"/>
<rect x="677.4" y="643.5" class="st0" width="33.9" height="31.5"/>
<rect x="677.4" y="608.4" class="st0" width="33.9" height="17.5"/>
<rect x="711.3" y="625.9" class="st0" width="17.5" height="17.5"/>
<rect x="340.8" y="590.9" class="st0" width="17.6" height="84.1"/>
<rect x="309.2" y="590.9" class="st0" width="31.5" height="84.1"/>
</svg>
