<?xml version="1.0" encoding="utf-8"?>
<!-- Generator: Adobe Illustrator 24.2.0, SVG Export Plug-In . SVG Version: 6.00 Build 0)  -->
<svg version="1.1" id="Layer_1" xmlns="http://www.w3.org/2000/svg" xmlns:xlink="http://www.w3.org/1999/xlink" x="0px" y="0px"
	 viewBox="0 0 95.5 29.7" style="enable-background:new 0 0 95.5 29.7;" xml:space="preserve">
<style type="text/css">
	.st0{fill:#FFFFFF;}
</style>
<g>
	<path class="st0" d="M37.4,6.3h3.4l7.9,10.4V6.3h3.7v16.9h-3.2L41,12.4v10.7h-3.7V6.3z"/>
	<path class="st0" d="M60.7,16.5L54.2,6.3h4.3l4,6.8l4.1-6.8h4.2l-6.5,10.1v6.7h-3.7C60.7,23.1,60.7,16.5,60.7,16.5z"/>
	<path class="st0" d="M72.5,15.9V6.3h3.7v9.5c0,2.7,1.4,4.2,3.6,4.2c2.3,0,3.6-1.4,3.6-4V6.3h3.7v9.5c0,5.1-2.9,7.6-7.4,7.6
		C75.2,23.4,72.5,20.9,72.5,15.9z"/>
</g>
<path class="st0" d="M0,0v29.7h29.7V0H0z M18.3,6.6C18.3,6.5,18.4,6.5,18.3,6.6c0.3,0.2,1.1,2.4,0.7,3.6c-0.3,0.8-3.7,0.9-4.5,5
	c0,0-0.1,0-0.1,0c-1.5-3.5,1.4-5.6,2.2-6.2C17.1,8.5,17.9,7.6,18.3,6.6z M15.4,4.7C15.4,4.7,15.4,4.6,15.4,4.7c0.3,0.3,1,2.2,1,3.5
	c0,0.1,0,0.2-0.1,0.2c-0.6,0.5-4.2,3.1-2.4,6.9c0,0,0,0.1-0.1,0c-2.9-1.9-3.6-4-0.8-7.3C13.4,7.7,15.1,5.9,15.4,4.7z M9.3,10.4
	c0.9-1.5,1.5-2.8,1.5-3.3c0-0.1,0-0.1,0.1,0c0.2,0.3,0.7,1.5,0.8,1.9c0,0.1,0,0.1,0,0.2c-1.3,1.9-1.6,4.5,1.5,6.3c0,0,0,0.1,0,0.1
	C8.3,15.4,8.3,12,9.3,10.4z M14.4,26.2c-0.1,0.3-0.6,0.2-0.6,0L12.9,18h2.5L14.4,26.2z M16.3,17.4H12v-1.2h4.3V17.4z M15.1,15.5
	C15.1,15.5,15,15.5,15.1,15.5c0.1-1.6,1.2-3.3,2.9-4c2-0.8,2.7-2.2,2.8-2.6c0-0.1,0.1-0.1,0.1,0C20.9,10.8,20.5,15.7,15.1,15.5z"/>
</svg>
