<?xml version="1.0" encoding="utf-8"?>
<!-- Generator: Adobe Illustrator 24.2.0, SVG Export Plug-In . SVG Version: 6.00 Build 0)  -->
<svg version="1.1" xmlns="http://www.w3.org/2000/svg" xmlns:xlink="http://www.w3.org/1999/xlink" x="0px" y="0px"
	 viewBox="0 0 559.8 698.6" style="enable-background:new 0 0 559.8 698.6;" xml:space="preserve">
<style type="text/css">
	.st0{fill:#FFFFFF;}
</style>
<g id="Laag_2">
	<g id="bQKPwQ.tif">
		
			<image style="overflow:visible;" width="407" height="571" id="Laag_1_2_" xlink:href="8798B472EE6B6370.png"  transform="matrix(1.2246 0 0 1.2246 0.3696 -0.6721)">
		</image>
	</g>
</g>
<g id="Laag_1">
	<rect x="171" class="st0" width="84.2" height="29.1"/>
	<rect x="313.3" class="st0" width="29.1" height="110.6"/>
	<rect x="387.3" class="st0" width="29.1" height="110.6"/>
	<rect x="462.4" class="st0" width="29.1" height="110.6"/>
	<rect x="530.5" class="st0" width="29.1" height="139.7"/>
	<rect x="342.4" y="110.5" class="st0" width="44.9" height="29.1"/>
	<rect x="416.4" y="110.5" class="st0" width="46" height="29.1"/>
	<rect x="142" y="29.1" class="st0" width="29.1" height="81.5"/>
	<rect x="255.2" y="29.1" class="st0" width="29.1" height="81.5"/>
	<rect x="58.7" y="110.5" class="st0" width="71.3" height="29.1"/>
	<rect x="58.7" class="st0" width="83.3" height="110.6"/>
	<rect x="29.6" y="110.5" class="st0" width="29.1" height="29.1"/>
	<rect x="142" class="st0" width="29.1" height="29.1"/>
	<rect x="255.2" class="st0" width="58.1" height="29.1"/>
	<rect x="284.3" y="29.1" class="st0" width="29" height="81.8"/>
	<rect x="342.4" class="st0" width="44.9" height="110.6"/>
	<rect x="416.4" class="st0" width="46" height="110.6"/>
	<rect x="387.3" y="110.5" class="st0" width="29.1" height="29.1"/>
	<rect x="462.4" y="110.5" class="st0" width="68.1" height="29.1"/>
	<rect x="491.5" class="st0" width="39" height="110.6"/>
	<rect x="0.3" class="st0" width="29.3" height="139.9"/>
	<rect x="171" y="139.6" class="st0" width="84.2" height="29.1"/>
	<rect x="142" y="139.6" class="st0" width="29.1" height="29.1"/>
	<rect x="255.2" y="139.6" class="st0" width="58.3" height="29.4"/>
	<rect x="530.5" y="279.3" class="st0" width="29.1" height="139.7"/>
	<rect x="491.5" y="279.3" class="st0" width="39" height="111.3"/>
	<rect x="284.3" y="587.7" class="st0" width="29" height="81.8"/>
	<rect x="416.4" y="558.6" class="st0" width="46.2" height="110.6"/>
	<rect x="416.3" y="250" class="st0" width="46.3" height="29.1"/>
	<rect x="29.5" y="139.5" class="st0" width="29.1" height="111.4"/>
	<rect x="170.9" y="669" class="st0" width="84.2" height="29.1"/>
	<rect x="255.1" y="669" class="st0" width="87.2" height="29.1"/>
	<rect x="416.1" y="139" class="st0" width="46.5" height="111"/>
	<rect x="255" y="528.9" class="st0" width="87.6" height="30"/>
	<rect x="342.1" y="558" class="st0" width="45.4" height="111.5"/>
	<rect y="558" class="st0" width="29.8" height="139.7"/>
	<rect x="491.2" y="139" class="st0" width="39" height="111.5"/>
	<rect y="418.3" class="st0" width="29.8" height="139.7"/>
	<rect x="313.5" y="139.6" class="st0" width="29.1" height="110.9"/>
	<rect x="462.6" y="139.9" class="st0" width="29.1" height="110.6"/>
	<rect x="530.7" y="139.9" class="st0" width="29.1" height="139.7"/>
	<rect x="342.6" y="250.5" class="st0" width="44.9" height="29.1"/>
	<rect x="255.4" y="169" class="st0" width="29.1" height="81.5"/>
	<rect x="171.2" y="250.5" class="st0" width="84.2" height="29.1"/>
	<rect x="58.9" y="250.5" class="st0" width="71.3" height="29.1"/>
	<rect x="29.8" y="250.5" class="st0" width="29.1" height="29.1"/>
	<rect x="387.5" y="250.5" class="st0" width="29.1" height="29.1"/>
	<rect x="462.6" y="250.5" class="st0" width="68.1" height="29.1"/>
	<rect x="0.5" y="139.9" class="st0" width="29.3" height="139.7"/>
	<rect x="29.8" y="279.6" class="st0" width="29.1" height="110.6"/>
	<rect x="255.4" y="279.6" class="st0" width="58.1" height="29.1"/>
	<rect x="130.1" y="390.1" class="st0" width="41.1" height="29.1"/>
	<rect x="255.4" y="390.1" class="st0" width="87.2" height="29.1"/>
	<rect x="387.5" y="390.1" class="st0" width="29.1" height="29.1"/>
	<rect x="462.6" y="390.1" class="st0" width="68.1" height="29.1"/>
	<rect x="0.5" y="279.6" class="st0" width="29.3" height="139.7"/>
	<rect x="171.2" y="419.2" class="st0" width="84.2" height="29.1"/>
	<rect x="387.5" y="419.2" class="st0" width="29.1" height="110.6"/>
	<rect x="462.6" y="419.2" class="st0" width="29.1" height="110.6"/>
	<rect x="530.7" y="419.2" class="st0" width="29.1" height="139.7"/>
	<rect x="387.5" y="279.6" class="st0" width="29.1" height="110.6"/>
	<rect x="416.6" y="390.1" class="st0" width="46" height="29.1"/>
	<rect x="342.6" y="529.8" class="st0" width="44.9" height="29.1"/>
	<rect x="416.6" y="529.8" class="st0" width="46" height="29.1"/>
	<rect x="142.1" y="448.3" class="st0" width="29.1" height="81.5"/>
	<rect x="29.8" y="419.2" class="st0" width="29.1" height="110.6"/>
	<rect x="171.2" y="529.8" class="st0" width="84.2" height="29.1"/>
	<rect x="142.1" y="419.2" class="st0" width="29.1" height="29.1"/>
	<rect x="255.4" y="419.2" class="st0" width="58.1" height="29.1"/>
	<rect x="284.4" y="448.3" class="st0" width="29" height="81.9"/>
	<rect x="462.6" y="529.8" class="st0" width="68.1" height="29.1"/>
	<rect x="491.7" y="419.2" class="st0" width="39" height="110.6"/>
	<rect x="387.5" y="558.9" class="st0" width="29.1" height="110.6"/>
	<rect x="462.6" y="558.9" class="st0" width="29.1" height="110.6"/>
	<rect x="530.7" y="558.9" class="st0" width="29.1" height="139.7"/>
	<rect x="171.2" y="558.9" class="st0" width="84.2" height="29.1"/>
	<rect x="342.6" y="669.5" class="st0" width="44.9" height="29.1"/>
	<rect x="416.6" y="669.5" class="st0" width="46" height="29.1"/>
	<rect x="255.4" y="588" class="st0" width="29.1" height="81.5"/>
	<rect x="29.8" y="669.5" class="st0" width="29.1" height="29.1"/>
	<rect x="142.1" y="558.9" class="st0" width="29.1" height="29.1"/>
	<rect x="130.1" y="669.5" class="st0" width="41.1" height="29.1"/>
	<rect x="387.5" y="669.5" class="st0" width="29.1" height="29.1"/>
	<rect x="462.6" y="669.5" class="st0" width="68.1" height="29.1"/>
	<rect x="491.7" y="558.9" class="st0" width="39" height="110.6"/>
	<rect x="462.6" y="279.6" class="st0" width="29.1" height="110.6"/>
	<rect x="58.9" y="529.8" class="st0" width="71.3" height="29.1"/>
	<rect x="29.8" y="529.8" class="st0" width="29.1" height="29.1"/>
	<rect x="130.1" y="529.8" class="st0" width="41.1" height="29.1"/>
	<rect x="342.6" y="419.2" class="st0" width="44.9" height="110.6"/>
	<rect x="142.1" y="448.3" class="st0" width="29.1" height="81.5"/>
	<rect x="142.1" y="588" class="st0" width="29.1" height="81.5"/>
	<rect x="29.8" y="558.9" class="st0" width="29.1" height="110.6"/>
	<rect x="58.9" y="669.5" class="st0" width="71.3" height="29.1"/>
	<rect x="342.6" y="390.1" class="st0" width="44.9" height="29.1"/>
	<rect x="29.8" y="390.1" class="st0" width="29.1" height="29.1"/>
	<rect x="416.6" y="529.4" class="st0" width="45.9" height="29.5"/>
</g>
</svg>
