<?xml version="1.0" encoding="utf-8"?>
<!-- Generator: Adobe Illustrator 24.2.0, SVG Export Plug-In . SVG Version: 6.00 Build 0)  -->
<svg version="1.1" id="Laag_1" xmlns="http://www.w3.org/2000/svg" xmlns:xlink="http://www.w3.org/1999/xlink" x="0px" y="0px"
	 viewBox="0 0 400 400" style="enable-background:new 0 0 400 400;" xml:space="preserve">
<style type="text/css">
	.st0{fill:#19A497;}
	.st1{fill:#CDB252;}
	.st2{fill:#FFFFFF;}
</style>
<g>
	<path d="M200,41.5c42.3,0,82.1,16.5,112.1,46.4s46.4,69.7,46.4,112.1s-16.5,82.1-46.4,112.1s-69.7,46.4-112.1,46.4
		S117.9,342,87.9,312.1S41.5,242.3,41.5,200S58,117.9,87.9,87.9S157.7,41.5,200,41.5 M200,40.5c-88.1,0-159.5,71.4-159.5,159.5
		S111.9,359.5,200,359.5S359.5,288.1,359.5,200S288.1,40.5,200,40.5L200,40.5z"/>
</g>
<rect x="311.5" y="86.4" transform="matrix(0.995 0.1003 -0.1003 0.995 10.7581 -31.275)" class="st0" width="10" height="10"/>
<rect x="98.7" y="321.7" transform="matrix(0.9404 0.3401 -0.3401 0.9404 117.2968 -15.815)" class="st1" width="10" height="10"/>
<rect x="323.1" y="290.9" transform="matrix(0.7831 0.6218 -0.6218 0.7831 255.1846 -139.8609)" class="st1" width="10" height="10"/>
<rect x="189.8" y="313" transform="matrix(0.995 0.1003 -0.1003 0.995 33.3923 -18.4035)" class="st0" width="20" height="20"/>
<rect x="297.4" y="168.6" transform="matrix(0.995 0.1003 -0.1003 0.995 19.4532 -29.9142)" class="st2" width="20" height="20"/>
</svg>
