<svg fill="#000000" xmlns="http://www.w3.org/2000/svg"  viewBox="0 0 30 30" width="30px" height="30px"><path d="M16.987 19.561c-.589 0-1.066-.478-1.066-1.066s.476-1.066 1.066-1.066c.588 0 1.065.478 1.065 1.066C18.051 19.083 17.574 19.561 16.987 19.561zM22.034 19.561c-.588 0-1.065-.478-1.065-1.066s.478-1.066 1.065-1.066c.589 0 1.067.478 1.067 1.066S22.623 19.561 22.034 19.561z"/><path d="M13,4C7.486,4,3,7.813,3,12.5c0,1.589,0.512,3.123,1.485,4.463l-0.582,4.553l4.021-1.689c1.533,0.768,3.277,1.171,5.096,1.171c0.002,0,0.004,0,0.006,0L13,19c0-4,4-4.83,7.722-4.83l1.9,0.625C22.873,14.032,23,13.26,23,12.5C23,7.813,18.514,4,13,4z M9.562,11.985c-0.777,0-1.406-0.63-1.406-1.408c0-0.776,0.629-1.406,1.406-1.406c0.778,0,1.407,0.63,1.407,1.406S10.339,11.985,9.562,11.985z M17.235,11.985c-0.779,0-1.407-0.63-1.407-1.408c0-0.777,0.63-1.406,1.407-1.406c0.777,0,1.406,0.63,1.406,1.406C18.641,11.355,18.012,11.985,17.235,11.985z"/><path fill="none" stroke="#000000" stroke-miterlimit="10" stroke-width="2" d="M24.865,22.64C25.58,21.77,26,20.718,26,19.583c0-2.992-2.91-5.417-6.5-5.417S13,16.592,13,19.583C13,22.575,15.91,25,19.5,25c1.504,0,2.886-0.43,3.987-1.145l1.628,0.914L24.865,22.64z"/></svg>